#
#
#

mtllib box.mtl


#
#  Mesh
#
g  Mesh


#
#  Mesh_None
#
usemtl  Mesh_None

v -2.958869 -2.958869 -2.958869
v -2.958869 2.958869 2.958869
v -2.958869 -2.958869 2.958869
v 2.958869 -2.958869 -2.958869
v -2.958869 2.958869 -2.958869
v 2.958869 2.958869 2.958869
v 2.958869 -2.958869 2.958869
v 2.958869 2.958869 -2.958869
vn 1.000000 0.000000 0.000000
vn 0.000000 0.000000 1.000000
vn 0.000000 0.000000 -1.000000
vn 0.000000 1.000000 0.000000
vn 0.000000 -1.000000 0.000000
vt 0.375000 0.250000
vt 0.625000 0.000000
vt 0.375000 0.000000
vt 0.375000 0.500000
vt 0.625000 0.250000
vt 0.375000 1.000000
vt 0.625000 0.750000
vt 0.375000 0.750000
vt 0.125000 0.750000
vt 0.125000 0.500000
vt 0.875000 0.500000
vt 0.625000 0.500000
vt 0.625000 1.000000
vt 0.875000 0.750000
f 1/1/1 2/2/1 3/3/1
f 4/4/2 5/5/2 1/1/2
f 3/6/3 6/7/3 7/8/3
f 3/9/4 4/4/4 1/10/4
f 6/7/5 5/11/5 8/12/5
f 1/1/1 5/5/1 2/2/1
f 4/4/2 8/12/2 5/5/2
f 3/6/3 2/13/3 6/7/3
f 3/9/4 7/8/4 4/4/4
f 6/7/5 2/14/5 5/11/5
